<svg version="1.1" id="Layer_1" xmlns="http://www.w3.org/2000/svg" xmlns:xlink="http://www.w3.org/1999/xlink" x="0px" y="0px"
	 width="100%" viewBox="0 0 1080 1080" enable-background="new 0 0 1080 1080" xml:space="preserve">
<path fill="#FF8500" opacity="1.000000" stroke="none" 
	d="
M1.000011,1078.000000 
	C1.000000,719.635742 1.000000,361.271515 1.194465,2.317015 
	C1.617610,1.505521 1.821299,1.263266 2.000000,1.000000 
	C361.598877,1.000000 721.197754,1.000000 1081.000000,1.000000 
	C1081.000000,360.364227 1081.000000,719.728516 1080.804443,1079.682129 
	C1080.373047,1080.486816 1080.170044,1080.729614 1080.000000,1081.000000 
	C721.635742,1081.000000 363.271515,1081.000000 4.256401,1080.769287 
	C2.737032,1079.692383 1.868528,1078.846191 1.000011,1078.000000 
M716.169922,621.011658 
	C714.778687,621.009033 713.387512,621.006348 712.348816,620.434265 
	C716.483032,617.805115 721.195435,615.757996 724.590759,612.385071 
	C728.066895,608.931824 730.252869,604.179810 733.063538,600.716919 
	C733.804138,602.313721 734.544678,603.910461 735.285217,605.507263 
	C737.154602,602.088379 736.141113,600.386292 733.226868,599.358398 
	C735.649475,596.679932 738.072144,594.001404 740.494751,591.322876 
	C741.350769,590.588257 741.050171,589.188354 741.398743,587.974976 
	C743.996277,578.933350 746.973267,569.993103 749.311340,560.887573 
	C750.650391,555.672729 751.487915,550.226501 751.697510,544.851135 
	C751.941650,538.588379 751.253357,532.289307 751.697327,525.857239 
	C755.847839,523.253967 757.076294,528.406250 760.436401,529.686584 
	C760.625916,532.790833 760.815369,535.895020 760.455139,539.208557 
	C760.639221,540.139282 760.823242,541.070068 761.164368,542.626404 
	C762.290649,543.435730 763.416992,544.245056 764.784912,545.755859 
	C764.756592,546.494019 764.728271,547.232117 764.317261,548.588989 
	C764.170654,550.037964 764.023987,551.486877 763.254578,552.967651 
	C762.837891,552.980530 762.421265,552.993408 761.561279,552.703308 
	C760.370239,552.465637 759.179260,552.227966 758.348999,551.397644 
	C760.453979,548.249756 760.544250,546.033081 755.022583,545.731873 
	C755.022583,548.707397 754.845703,551.423706 755.112549,554.095703 
	C755.214355,555.114929 756.333313,556.032471 757.590027,557.197571 
	C758.734436,558.134949 759.878784,559.072388 761.022522,560.778809 
	C761.640015,562.459473 759.436523,566.391785 764.582275,565.250427 
	C764.802673,565.824707 765.023132,566.399048 764.904053,567.333923 
	C765.291992,567.869385 765.679871,568.404785 766.133606,569.402832 
	C766.133606,569.402832 766.158936,569.869263 765.927307,570.563965 
	C764.927490,573.072327 762.341797,576.264465 768.619507,576.372131 
	C769.122864,577.916138 769.626160,579.460144 769.782410,581.482178 
	C770.190002,586.656189 770.597656,591.830139 770.407776,597.276855 
	C769.981934,598.378296 769.556152,599.479736 769.130371,600.581177 
	C769.591309,600.702087 770.052307,600.822998 770.513245,600.943909 
	C770.673706,599.627441 770.834106,598.310974 771.786133,597.007629 
	C775.297180,597.173767 777.708801,598.329651 778.147217,602.422791 
	C778.490173,605.624695 788.552002,613.515259 792.125427,613.876221 
	C792.125427,613.876221 792.143921,613.928467 792.004700,614.639404 
	C789.797424,617.636292 787.590149,620.633118 784.711060,624.542175 
	C787.661377,623.816895 789.332642,623.406006 791.194885,623.511047 
	C791.722717,623.791138 792.250610,624.071167 792.778503,624.351257 
	C792.881226,624.079529 792.984009,623.807800 793.086792,623.536072 
	C792.389465,623.358948 791.692200,623.181824 791.041809,622.316528 
	C792.816040,615.680664 794.769775,622.748901 797.019348,622.198425 
	C797.558899,621.565918 798.289612,620.709351 799.682434,620.050598 
	C802.140747,622.011230 804.598999,623.971802 807.183289,626.609680 
	C808.515259,627.674316 809.847290,628.739014 811.874390,629.995239 
	C817.231689,632.579773 822.381165,635.802917 827.986084,637.626526 
	C843.498718,642.673706 859.335693,646.180237 875.865051,644.925171 
	C880.664062,644.560730 885.700928,645.303528 890.253479,644.108704 
	C902.709900,640.839355 915.323975,637.822449 926.533447,630.958923 
	C928.872803,629.526489 932.271240,629.458435 934.129578,627.668945 
	C942.112610,619.981689 950.115051,612.237061 957.284851,603.810913 
	C961.692627,598.630737 969.883423,595.437134 968.303711,586.349548 
	C968.258423,586.089172 968.555542,585.745422 968.739990,585.472351 
	C975.387146,575.629700 976.668640,564.210999 977.794739,552.899963 
	C978.500916,545.805786 978.437744,538.546570 977.836975,531.435974 
	C977.255371,524.551941 976.110718,517.599487 974.193970,510.971863 
	C971.408813,501.341217 967.708618,491.975189 964.648010,483.210358 
	C962.715881,481.914398 960.830811,481.006897 959.398560,479.628754 
	C952.427246,472.921143 946.085571,465.447693 938.553711,459.462585 
	C929.378479,452.171570 919.579407,445.437408 908.025452,442.177429 
	C903.906128,441.015167 899.640686,440.300537 895.401001,439.647675 
	C880.720581,437.386993 866.119812,434.946289 851.143799,438.067474 
	C828.312256,442.825867 807.566956,451.327698 791.419434,468.869324 
	C789.527527,470.924500 787.776550,473.143585 786.204346,475.452850 
	C779.764954,484.910767 770.849792,492.958008 768.369141,505.131714 
	C766.327515,507.859100 763.834717,510.380737 762.453430,513.409302 
	C761.852539,514.726685 763.535278,517.085571 763.900818,519.403931 
	C763.670410,519.655762 763.439941,519.907593 762.768127,520.355591 
	C762.492188,520.524353 762.251282,520.733521 761.553528,521.405396 
	C758.005127,524.073608 758.217529,521.211792 758.387329,518.378113 
	C758.387329,516.763306 758.387329,515.148499 758.387329,513.032532 
	C756.056702,513.893555 754.541870,514.453247 752.346558,515.006836 
	C751.892761,515.003357 751.438965,514.999878 750.981140,514.332275 
	C750.982422,513.889465 750.983704,513.446655 751.574768,512.758362 
	C751.646790,510.342499 751.303650,507.824921 751.865967,505.529144 
	C753.827576,497.520020 751.250549,494.034973 742.424500,493.618530 
	C740.045837,490.448181 737.667175,487.277863 734.124451,482.556000 
	C730.952637,481.670715 730.977112,481.685211 733.872314,476.793610 
	C734.243591,476.166290 734.580688,474.968628 734.269897,474.609314 
	C733.727051,473.981781 732.679138,473.537018 731.822876,473.501678 
	C730.843628,473.461182 729.842407,473.950928 729.345459,474.080902 
	C729.102417,471.909821 729.313293,468.798767 728.624207,468.584686 
	C726.645386,467.970032 724.302429,468.527527 721.572205,468.647736 
	C721.285156,467.527679 720.817383,465.702484 720.349548,463.877289 
	C719.907043,464.236816 719.464478,464.596344 719.021912,464.955841 
	C717.042297,463.115570 714.620605,461.566315 713.176941,459.373230 
	C710.340210,455.064270 716.422363,455.643036 717.447327,452.578400 
	C713.350952,452.791534 709.624207,452.985413 705.764404,453.186249 
	C706.189026,454.159912 706.654297,455.226898 707.119568,456.293854 
	C706.753967,456.623993 706.388367,456.954132 706.022766,457.284271 
	C703.652100,455.264496 701.281494,453.244751 698.069336,450.508087 
	C697.738708,450.489075 695.812195,450.750427 694.166687,450.188629 
	C692.160461,449.503693 689.310364,448.546082 688.701599,446.977997 
	C685.757507,439.394318 683.363220,437.852234 675.731750,439.824829 
	C674.836182,440.056305 673.828552,439.983612 672.888855,439.890411 
	C670.269470,439.630585 667.546448,439.643646 665.076599,438.870728 
	C662.751343,438.142944 660.696411,436.551117 659.139893,435.683533 
	C657.056213,437.119049 655.390320,439.263123 653.715881,439.269806 
	C631.405823,439.359070 609.092834,439.267700 586.784241,438.960846 
	C576.408752,438.818085 565.559143,441.265961 556.141113,434.272400 
	C555.747314,433.979950 554.095337,435.381714 552.347046,435.866364 
	C551.231384,435.577484 550.115662,435.288605 548.199219,435.018982 
	C545.940735,435.152618 542.969788,436.254242 541.568665,435.223022 
	C538.425476,432.909698 535.865234,433.634552 532.229431,435.039703 
	C527.021362,438.124695 521.538696,439.456451 515.355042,439.127930 
	C506.727203,438.669525 498.054291,438.892456 489.405457,439.064209 
	C484.936127,439.152985 480.450012,439.567230 476.021423,440.189728 
	C471.877716,440.772186 470.830902,443.699341 470.873260,449.687958 
	C471.042755,473.646484 470.969788,497.606781 470.936035,521.566345 
	C470.934967,522.322083 470.382660,523.077026 469.724548,524.760071 
	C469.118225,522.202271 468.761230,520.696228 468.404205,519.190125 
	C468.142792,519.186279 467.881378,519.182373 467.619965,519.178528 
	C467.151215,522.319397 466.682434,525.460266 466.213684,528.601135 
	C465.723907,528.652161 465.234131,528.703125 464.744354,528.754150 
	C463.758179,527.015259 463.111969,524.182861 461.719788,523.750061 
	C458.073029,522.616394 457.759064,520.195251 457.005859,517.155029 
	C456.637390,515.667786 453.767944,514.856628 452.129456,513.609497 
	C450.840515,512.628418 449.149261,511.671295 448.602417,510.314392 
	C446.958282,506.234497 445.786499,501.964233 444.380646,497.614258 
	C442.524445,498.839508 441.223877,499.697968 440.218536,500.361572 
	C435.286957,496.083954 430.763306,492.043762 432.992279,484.197540 
	C434.547546,478.500946 428.673889,477.732635 425.305359,474.016022 
	C427.897797,473.471985 429.689209,473.555664 430.823669,472.733154 
	C432.042084,471.849823 432.643372,470.115265 433.513947,468.752167 
	C432.048157,468.157166 430.623749,467.332520 429.100220,467.058197 
	C428.264313,466.907715 427.237030,468.041870 426.337982,467.980713 
	C422.988647,467.752930 419.547333,467.604675 416.416565,466.581726 
	C415.836975,466.392426 416.816254,462.254517 416.552826,460.000153 
	C416.361267,458.360809 415.739014,456.199585 414.545563,455.372986 
	C412.316376,453.828979 409.532318,453.086029 406.322662,452.013428 
	C405.884918,452.016083 405.447174,452.018768 404.394104,451.613831 
	C402.925018,451.409637 401.455963,451.205414 399.617950,450.495850 
	C398.647705,449.671051 397.677490,448.846252 396.938660,448.218170 
	C397.598480,446.543976 398.121124,445.217834 398.643799,443.891663 
	C398.275330,443.657349 397.906860,443.423035 397.538391,443.188721 
	C396.250885,444.190155 394.963409,445.191559 392.706635,446.946869 
	C393.197479,441.384979 391.189026,438.029358 386.591614,436.699646 
	C385.048584,437.439240 383.443756,438.887726 381.868683,438.856079 
	C369.117126,438.599792 356.371582,438.052582 343.622589,437.644043 
	C342.711426,437.614807 341.528015,437.679260 340.910950,438.210754 
	C336.173309,442.291351 330.818207,446.116486 333.934784,453.823883 
	C334.456238,455.113464 334.011993,456.793915 334.012024,458.293762 
	C334.013062,516.121094 334.013336,573.948425 334.015228,631.775757 
	C334.015503,640.083496 334.609436,640.694885 343.043945,640.976257 
	C344.708618,641.031860 346.376648,640.989197 348.043121,640.989685 
	C362.041656,640.993713 376.044861,640.797119 390.035858,641.123657 
	C394.186554,641.220520 397.880585,641.456726 400.440552,637.805420 
	C400.281647,636.121948 400.134155,634.559082 400.617798,632.697327 
	C402.559082,630.563843 402.695343,628.627319 399.993103,626.250000 
	C399.995392,625.500000 399.997711,624.750000 400.680573,623.633484 
	C401.120178,621.772644 401.918060,619.915955 401.940002,618.050232 
	C402.063354,607.564453 401.817108,597.071289 402.117645,586.592712 
	C402.201752,583.660706 403.357208,580.597534 404.668579,577.910522 
	C405.856812,575.475647 405.276306,574.564270 402.291626,573.925293 
	C399.066650,573.014221 400.302460,570.937378 401.726593,569.056885 
	C403.353943,570.101013 405.710083,570.768372 406.479279,572.256226 
	C409.404327,577.914062 413.347351,577.593750 418.564514,575.403381 
	C418.564514,578.038574 418.564514,580.673706 418.564514,584.085449 
	C420.730133,582.185120 422.797058,580.371399 425.072296,578.374878 
	C428.210358,582.475220 433.681061,584.438354 433.527100,590.775024 
	C433.498718,591.944641 436.343536,594.298462 437.701721,594.184998 
	C442.354553,593.796143 442.433258,597.883545 444.041077,600.163391 
	C444.828003,601.279297 443.878265,603.619934 443.650665,606.103088 
	C445.780914,605.030640 447.162018,604.335327 447.909515,603.958984 
	C450.586212,606.564270 452.863831,608.781067 454.709259,610.577209 
	C454.146484,612.617126 452.672058,614.961670 453.314941,616.248047 
	C454.708130,619.035950 456.470367,616.899536 458.057495,615.725769 
	C458.192505,615.625916 460.402191,617.354736 460.328857,618.105103 
	C459.762573,623.900024 459.661774,623.890198 464.920258,622.144592 
	C465.346405,623.199402 465.600494,624.391602 466.253296,625.295959 
	C467.005676,626.338318 468.195099,627.053162 469.045807,628.038696 
	C471.652893,631.059143 470.927704,633.101440 466.944641,633.446533 
	C466.659363,632.955017 466.374054,632.463501 466.088776,631.971985 
	C465.892365,632.148376 465.695953,632.324707 465.499542,632.501099 
	C466.001312,632.999451 466.503052,633.497742 467.024475,634.751892 
	C467.571899,636.100708 468.119324,637.449524 469.045044,639.730469 
	C471.928802,634.743835 474.260468,633.705383 476.873688,638.579163 
	C477.365112,639.495667 479.477783,639.885559 480.860565,639.928406 
	C494.601288,640.353516 508.402405,640.026733 522.065369,641.257080 
	C528.835388,641.866760 535.347961,637.447327 542.545288,641.369324 
	C544.038513,641.237488 545.531738,641.105652 547.834106,640.974426 
	C550.228394,640.476379 553.406921,638.757690 554.875122,639.701050 
	C560.008057,642.998901 565.248169,640.744629 570.316589,640.852051 
	C587.450745,641.214844 604.602356,641.247498 621.737854,640.917664 
	C638.765808,640.589844 655.953430,642.643921 672.752808,638.059265 
	C673.209839,637.934509 673.769714,638.206055 674.237854,638.099731 
	C676.398682,637.609070 678.993835,637.628235 680.593018,636.384338 
	C683.220215,634.340881 685.044495,634.708069 687.653992,636.292542 
	C692.973083,639.522400 698.786682,638.660095 705.519714,638.070007 
	C702.919739,634.700378 696.158813,635.403809 699.117004,629.418640 
	C700.798157,629.418640 702.409851,629.418640 704.361145,629.418640 
	C703.874939,623.804749 708.768982,623.200928 712.077148,621.728394 
	C713.134705,622.702698 714.192200,623.676941 715.249756,624.651245 
	C715.831360,623.432434 716.412964,622.213562 717.724609,620.965210 
	C718.735474,620.141479 719.746277,619.317749 720.757141,618.494019 
	C720.181519,618.076172 719.605896,617.658386 719.030273,617.240540 
	C718.354980,618.495483 717.679749,619.750427 716.169922,621.011658 
M754.869690,566.653198 
	C754.747559,567.827881 754.625427,569.002625 754.469604,570.501160 
	C759.378052,568.130615 760.119080,564.612976 756.232666,561.041992 
	C752.523804,561.868896 751.737366,563.424072 754.869690,566.653198 
M470.727356,438.801392 
	C473.733582,437.903320 476.739777,437.005219 479.746002,436.107147 
	C477.431427,435.184723 475.094513,434.861298 472.746765,434.727295 
	C471.515564,434.657043 470.265411,434.918884 469.023834,435.030762 
	C469.350525,436.355164 469.677246,437.679535 469.226807,439.017456 
	C465.552948,439.680359 465.552948,439.680359 466.606689,443.185974 
	C467.921082,441.561493 468.958954,440.278809 470.727356,438.801392 
M257.115234,530.833435 
	C257.289429,532.322266 257.471649,533.810242 257.636566,535.300110 
	C260.656067,562.574036 244.349487,585.930237 219.091293,589.713318 
	C201.950363,592.280701 186.687302,587.809998 175.943817,573.626831 
	C162.432953,555.790283 161.442978,536.257812 170.839142,516.176819 
	C172.290359,513.075317 172.684723,510.603760 171.153015,507.391602 
	C167.070847,498.830902 163.454147,490.049683 159.498856,481.426575 
	C156.012283,473.825348 152.318344,466.319183 148.269989,457.836548 
	C142.897079,462.628632 138.149277,466.491821 133.822647,470.779968 
	C94.480194,509.772766 96.266037,578.048218 137.641281,614.978210 
	C164.700333,639.130127 196.454193,647.420959 231.841904,641.157959 
	C265.387360,635.220947 290.780396,617.102356 306.516205,586.769836 
	C325.120667,550.907715 319.867950,506.335205 294.153870,476.164764 
	C288.385742,469.396973 282.224091,462.909576 273.870361,458.413635 
	C266.884064,473.887329 260.336212,488.994324 253.222183,503.829834 
	C250.610458,509.276306 250.280640,513.868530 253.324417,519.176453 
	C255.184189,522.419617 255.844101,526.350830 257.115234,530.833435 
M172.161148,443.074371 
	C167.686569,443.497528 169.836639,446.094971 170.677109,447.988129 
	C181.209534,471.712219 191.798203,495.411407 202.377274,519.114746 
	C205.205338,525.451294 208.049698,531.780518 211.486511,539.452332 
	C226.031097,506.800140 239.987885,475.467590 254.431870,443.041260 
	C226.527832,443.041260 199.779388,443.041260 172.161148,443.074371 
M429.198669,587.286621 
	C427.700287,587.453308 426.201904,587.619995 424.703522,587.786743 
	C425.000092,588.614380 425.296661,589.442078 425.593231,590.269775 
	C426.881195,589.475647 428.169128,588.681519 429.198669,587.286621 
M673.063416,435.625946 
	C674.056335,435.926666 675.049255,436.227356 676.042175,436.528046 
	C676.250305,436.032013 676.458374,435.536011 676.666504,435.039978 
	C675.450745,434.423492 674.235046,433.807037 673.019287,433.190582 
	C672.875305,433.876648 672.731384,434.562714 673.063416,435.625946 
M747.289490,586.268555 
	C747.391479,586.395630 747.472534,586.553650 747.601501,586.640808 
	C747.722168,586.722412 747.893677,586.728943 748.042786,586.768494 
	C748.510193,584.869812 748.977600,582.971069 749.445068,581.072388 
	C748.899658,580.983521 748.354309,580.894714 747.808899,580.805908 
	C747.579529,582.424927 747.350098,584.043945 747.289490,586.268555 
M397.096924,436.493988 
	C396.565216,437.252899 396.033478,438.011780 395.501740,438.770660 
	C396.064819,439.002594 396.627899,439.234528 397.190979,439.466431 
	C397.343689,438.556641 397.496368,437.646820 397.096924,436.493988 
M742.881470,482.916779 
	C742.135498,483.207764 741.389465,483.498779 740.643494,483.789764 
	C741.238892,484.382751 741.834229,484.975708 742.429565,485.568665 
	C742.714355,484.826447 742.999146,484.084229 742.881470,482.916779 
M438.184875,602.234619 
	C437.383850,602.277527 436.582794,602.320435 435.781769,602.363403 
	C436.048126,603.016602 436.314514,603.669861 436.580872,604.323059 
	C437.184998,603.793335 437.789093,603.263550 438.184875,602.234619 
M392.101746,434.809692 
	C391.710052,434.301575 391.318329,433.793427 390.926605,433.285309 
	C390.555023,433.691071 390.183472,434.096863 389.811890,434.502594 
	C390.453857,434.733002 391.095795,434.963409 392.101746,434.809692 
M733.262451,465.264862 
	C732.794678,465.719971 732.326965,466.175079 731.859192,466.630188 
	C732.388062,466.855347 732.916870,467.080505 733.445740,467.305634 
	C733.551880,466.682953 733.658020,466.060242 733.262451,465.264862 
M773.987244,608.350281 
	C774.029236,607.825012 774.071167,607.299805 774.113098,606.774536 
	C773.611206,606.904724 773.109375,607.034912 772.607483,607.165100 
	C772.903198,607.602112 773.198914,608.039062 773.987244,608.350281 
M433.728302,597.842163 
	C433.891296,597.959656 434.054291,598.077209 434.217285,598.194702 
	C434.114380,598.022644 434.011444,597.850586 433.728302,597.842163 
z"/>
<path fill="#EA7500" opacity="1.000000" stroke="none" 
	d="
M1.000011,1078.500000 
	C1.868528,1078.846191 2.737032,1079.692383 3.802768,1080.769287 
	C2.731102,1080.736694 0.387769,1082.084961 1.000011,1078.500000 
z"/>
<path fill="#EA7500" opacity="1.000000" stroke="none" 
	d="
M1080.500000,1081.000000 
	C1080.170044,1080.729614 1080.373047,1080.486816 1080.804443,1080.135742 
	C1081.000000,1080.333374 1081.000000,1080.666626 1080.500000,1081.000000 
z"/>
<path fill="#EA7500" opacity="1.000000" stroke="none" 
	d="
M1.500000,1.000000 
	C1.821299,1.263266 1.617610,1.505521 1.194465,1.863382 
	C1.000000,1.666667 1.000000,1.333333 1.500000,1.000000 
z"/>
<path fill="#FEFDFA" opacity="1.000000" stroke="none" 
	d="
M764.700012,547.970276 
	C764.728271,547.232117 764.756592,546.494019 764.769897,544.964844 
	C764.728638,541.768555 764.702393,539.363159 764.817017,536.540283 
	C766.037415,528.442932 767.117004,520.763184 768.420288,512.889648 
	C768.723694,512.120361 768.803345,511.544800 769.066528,510.665771 
	C773.225159,502.142914 776.344116,493.360352 781.318604,485.798370 
	C807.661682,445.752747 859.458069,428.883392 906.110962,444.629852 
	C958.499695,462.312286 987.591980,514.830017 972.645203,567.789368 
	C961.092102,608.724121 932.570129,632.838257 891.085815,640.918274 
	C858.823914,647.202026 829.180542,639.981628 803.066162,619.917603 
	C796.538818,614.902588 791.124451,608.438965 785.180542,602.465210 
	C785.162476,602.289307 784.903625,602.048462 784.855469,601.705566 
	C772.824524,585.553772 766.801880,567.500305 764.700012,547.970276 
M881.519958,492.753754 
	C868.612427,490.183960 856.394470,491.628387 845.106628,498.847046 
	C819.846130,515.001282 817.785461,553.653076 834.990051,574.007446 
	C847.119019,588.356934 862.977173,592.899719 880.863281,589.218018 
	C898.746338,585.536865 910.023682,573.939087 914.953064,556.466492 
	C922.842468,528.502136 909.325256,499.490540 881.519958,492.753754 
z"/>
<path fill="#FEFDFA" opacity="1.000000" stroke="none" 
	d="
M257.079041,530.403198 
	C255.844101,526.350830 255.184189,522.419617 253.324417,519.176453 
	C250.280640,513.868530 250.610458,509.276306 253.222183,503.829834 
	C260.336212,488.994324 266.884064,473.887329 273.870361,458.413635 
	C282.224091,462.909576 288.385742,469.396973 294.153870,476.164764 
	C319.867950,506.335205 325.120667,550.907715 306.516205,586.769836 
	C290.780396,617.102356 265.387360,635.220947 231.841904,641.157959 
	C196.454193,647.420959 164.700333,639.130127 137.641281,614.978210 
	C96.266037,578.048218 94.480194,509.772766 133.822647,470.779968 
	C138.149277,466.491821 142.897079,462.628632 148.269989,457.836548 
	C152.318344,466.319183 156.012283,473.825348 159.498856,481.426575 
	C163.454147,490.049683 167.070847,498.830902 171.153015,507.391602 
	C172.684723,510.603760 172.290359,513.075317 170.839142,516.176819 
	C161.442978,536.257812 162.432953,555.790283 175.943817,573.626831 
	C186.687302,587.809998 201.950363,592.280701 219.091293,589.713318 
	C244.349487,585.930237 260.656067,562.574036 257.636566,535.300110 
	C257.471649,533.810242 257.289429,532.322266 257.079041,530.403198 
z"/>
<path fill="#FEFCF6" opacity="1.000000" stroke="none" 
	d="
M172.596039,443.057800 
	C199.779388,443.041260 226.527832,443.041260 254.431870,443.041260 
	C239.987885,475.467590 226.031097,506.800140 211.486511,539.452332 
	C208.049698,531.780518 205.205338,525.451294 202.377274,519.114746 
	C191.798203,495.411407 181.209534,471.712219 170.677109,447.988129 
	C169.836639,446.094971 167.686569,443.497528 172.596039,443.057800 
z"/>
<path fill="#F78912" opacity="1.000000" stroke="none" 
	d="
M401.004486,569.000000 
	C400.302460,570.937378 399.066650,573.014221 402.586365,574.334229 
	C401.918304,578.416504 400.224670,582.070251 400.125305,585.766785 
	C399.783051,598.503174 399.997589,611.254395 400.000000,624.000000 
	C399.997711,624.750000 399.995392,625.500000 399.993347,627.053284 
	C399.991302,629.569824 399.988983,631.283020 399.986633,632.996277 
	C400.134155,634.559082 400.281647,636.121948 400.440552,637.805420 
	C397.880585,641.456726 394.186554,641.220520 390.035858,641.123657 
	C376.044861,640.797119 362.041656,640.993713 348.043121,640.989685 
	C346.376648,640.989197 344.708618,641.031860 343.043945,640.976257 
	C334.609436,640.694885 334.015503,640.083496 334.015228,631.775757 
	C334.013336,573.948425 334.013062,516.121094 334.012024,458.293762 
	C334.011993,456.793915 334.456238,455.113464 333.934784,453.823883 
	C330.818207,446.116486 336.173309,442.291351 340.910950,438.210754 
	C341.528015,437.679260 342.711426,437.614807 343.622589,437.644043 
	C356.371582,438.052582 369.117126,438.599792 381.868683,438.856079 
	C383.443756,438.887726 385.048584,437.439240 386.591614,436.699646 
	C391.189026,438.029358 393.197479,441.384979 392.706635,446.946869 
	C394.963409,445.191559 396.250885,444.190155 397.538391,443.188721 
	C397.906860,443.423035 398.275330,443.657349 398.643799,443.891663 
	C398.121124,445.217834 397.598480,446.543976 396.938660,448.218170 
	C397.677490,448.846252 398.647705,449.671051 399.889526,451.097534 
	C407.411774,466.443024 419.516449,476.405975 432.985107,485.025452 
	C430.763306,492.043762 435.286957,496.083954 440.218536,500.361572 
	C441.223877,499.697968 442.524445,498.839508 444.380646,497.614258 
	C445.786499,501.964233 446.958282,506.234497 448.602417,510.314392 
	C449.149261,511.671295 450.840515,512.628418 452.129456,513.609497 
	C453.767944,514.856628 456.637390,515.667786 457.005859,517.155029 
	C457.759064,520.195251 458.073029,522.616394 461.719788,523.750061 
	C463.111969,524.182861 463.758179,527.015259 464.744354,528.754150 
	C465.234131,528.703125 465.723907,528.652161 466.213684,528.601135 
	C466.682434,525.460266 467.151215,522.319397 467.619965,519.178528 
	C467.881378,519.182373 468.142792,519.186279 468.404205,519.190125 
	C468.761230,520.696228 469.118225,522.202271 469.724548,524.760071 
	C470.382660,523.077026 470.934967,522.322083 470.936035,521.566345 
	C470.969788,497.606781 471.042755,473.646484 470.873260,449.687958 
	C470.830902,443.699341 471.877716,440.772186 476.021423,440.189728 
	C480.450012,439.567230 484.936127,439.152985 489.405457,439.064209 
	C498.054291,438.892456 506.727203,438.669525 515.355042,439.127930 
	C521.538696,439.456451 527.021362,438.124695 532.607300,435.424744 
	C532.985413,436.872925 532.985718,437.936005 533.048462,439.321350 
	C533.739014,440.764709 534.367065,441.885803 535.060181,443.283569 
	C535.408813,444.045502 535.692322,444.530792 535.979614,445.346436 
	C535.987305,446.117462 535.991211,446.558136 535.993896,447.467560 
	C535.991821,464.571503 536.031555,481.206787 535.982300,497.841797 
	C535.856628,540.250610 535.681702,582.659302 535.602539,625.068176 
	C535.600708,626.046387 536.502075,627.026367 536.908936,628.323547 
	C536.555786,630.427734 536.275879,632.213867 536.073853,634.352417 
	C537.768982,635.804810 539.386108,636.904846 541.183838,638.154846 
	C541.596497,638.516479 541.805542,638.748901 541.989624,639.331299 
	C541.985474,640.099487 541.983154,640.538391 541.980835,640.977234 
	C535.347961,637.447327 528.835388,641.866760 522.065369,641.257080 
	C508.402405,640.026733 494.601288,640.353516 480.860565,639.928406 
	C479.477783,639.885559 477.365112,639.495667 476.873688,638.579163 
	C474.260468,633.705383 471.928802,634.743835 469.045044,639.730469 
	C468.119324,637.449524 467.571899,636.100708 467.012238,634.375977 
	C467.000000,634.000000 466.995239,634.005127 466.995239,634.005127 
	C470.927704,633.101440 471.652893,631.059143 469.045807,628.038696 
	C468.195099,627.053162 467.005676,626.338318 466.253296,625.295959 
	C465.600494,624.391602 465.346405,623.199402 464.920258,622.144592 
	C459.661774,623.890198 459.762573,623.900024 460.328857,618.105103 
	C460.402191,617.354736 458.192505,615.625916 458.057495,615.725769 
	C456.470367,616.899536 454.708130,619.035950 453.314941,616.248047 
	C452.672058,614.961670 454.146484,612.617126 454.709259,610.577209 
	C452.863831,608.781067 450.586212,606.564270 447.909515,603.958984 
	C447.162018,604.335327 445.780914,605.030640 443.650665,606.103088 
	C443.878265,603.619934 444.828003,601.279297 444.041077,600.163391 
	C442.433258,597.883545 442.354553,593.796143 437.701721,594.184998 
	C436.343536,594.298462 433.498718,591.944641 433.527100,590.775024 
	C433.681061,584.438354 428.210358,582.475220 425.072296,578.374878 
	C422.797058,580.371399 420.730133,582.185120 418.564514,584.085449 
	C418.564514,580.673706 418.564514,578.038574 418.210602,574.822327 
	C417.272308,572.180298 417.336517,569.097351 415.987518,568.241150 
	C411.026031,565.092224 409.344788,559.767883 406.230469,555.412659 
	C405.720490,554.699524 404.880066,554.222595 404.275604,553.707458 
	C400.036041,558.385071 398.902771,563.377136 401.004486,569.000000 
M473.739929,483.499939 
	C473.739929,503.188965 473.739929,522.877991 473.739929,542.567017 
	C471.250061,541.622498 470.081848,540.481384 469.019775,539.248840 
	C442.613800,508.605499 416.187592,477.979431 389.873535,447.257355 
	C387.381226,444.347565 384.798309,442.995758 380.905029,443.078278 
	C370.079773,443.307648 359.246460,443.157471 348.416351,443.157257 
	C344.975342,443.157196 341.534332,443.157257 337.648590,443.157257 
	C337.648590,447.423737 337.648224,450.892853 337.648651,454.361938 
	C337.656006,514.010864 337.681458,573.659729 337.624451,633.308594 
	C337.621185,636.742371 337.856659,638.955994 342.295166,638.895935 
	C359.120361,638.668335 375.949921,638.768677 392.777710,638.709167 
	C394.041840,638.704712 395.304962,638.407776 397.280701,638.156067 
	C397.280701,606.373840 397.280701,574.912048 397.280701,542.436462 
	C399.171753,544.159424 400.222504,544.966858 401.094421,545.935303 
	C407.109039,552.615906 413.076691,559.338745 419.077454,566.031921 
	C439.308167,588.596863 459.596863,611.110291 479.718903,633.771729 
	C482.270142,636.644958 484.519928,638.904785 488.754883,638.839661 
	C501.581390,638.642578 514.413940,638.670471 527.241638,638.818665 
	C531.253723,638.864929 532.760559,637.586792 532.721863,633.357544 
	C532.537659,613.199768 532.659668,593.039185 532.656982,572.879639 
	C532.651550,531.725220 532.580933,490.570679 532.700684,449.416626 
	C532.714355,444.731415 531.343018,442.981262 526.447998,443.058624 
	C510.623474,443.308838 494.790192,443.275635 478.965118,443.034302 
	C474.673828,442.968842 473.582275,444.494598 473.657684,448.511383 
	C473.870239,459.837402 473.736816,471.169952 473.739929,483.499939 
z"/>
<path fill="#F78912" opacity="1.000000" stroke="none" 
	d="
M553.029541,435.994171 
	C554.095337,435.381714 555.747314,433.979950 556.141113,434.272400 
	C565.559143,441.265961 576.408752,438.818085 586.784241,438.960846 
	C609.092834,439.267700 631.405823,439.359070 653.715881,439.269806 
	C655.390320,439.263123 657.056213,437.119049 659.139893,435.683533 
	C660.696411,436.551117 662.751343,438.142944 665.076599,438.870728 
	C667.546448,439.643646 670.269470,439.630585 672.888855,439.890411 
	C673.828552,439.983612 674.836182,440.056305 675.731750,439.824829 
	C683.363220,437.852234 685.757507,439.394318 688.701599,446.977997 
	C689.310364,448.546082 692.160461,449.503693 694.166687,450.188629 
	C695.812195,450.750427 697.738708,450.489075 698.069336,450.508087 
	C701.281494,453.244751 703.652100,455.264496 706.022766,457.284271 
	C706.388367,456.954132 706.753967,456.623993 707.119568,456.293854 
	C706.654297,455.226898 706.189026,454.159912 705.764404,453.186249 
	C709.624207,452.985413 713.350952,452.791534 717.447327,452.578400 
	C716.422363,455.643036 710.340210,455.064270 713.176941,459.373230 
	C714.620605,461.566315 717.042297,463.115570 719.021912,464.955841 
	C719.464478,464.596344 719.907043,464.236816 720.349548,463.877289 
	C720.817383,465.702484 721.285156,467.527679 721.572205,468.647736 
	C724.302429,468.527527 726.645386,467.970032 728.624207,468.584686 
	C729.313293,468.798767 729.102417,471.909821 729.345459,474.080902 
	C729.842407,473.950928 730.843628,473.461182 731.822876,473.501678 
	C732.679138,473.537018 733.727051,473.981781 734.269897,474.609314 
	C734.580688,474.968628 734.243591,476.166290 733.872314,476.793610 
	C730.977112,481.685211 730.952637,481.670715 734.124451,482.556000 
	C737.667175,487.277863 740.045837,490.448181 742.797241,494.154724 
	C744.960815,497.146088 746.883301,499.523132 748.426819,502.124969 
	C748.721436,502.621552 747.520630,504.005371 746.916504,504.730774 
	C746.114929,504.449646 745.406616,504.417603 744.698303,504.385559 
	C745.129272,505.259888 745.560242,506.134216 745.994385,507.393127 
	C745.324951,511.748138 747.954956,512.566833 750.984924,513.003845 
	C750.983704,513.446655 750.982422,513.889465 750.777039,515.008057 
	C750.705139,519.124512 750.837402,522.565247 750.969604,526.005981 
	C751.253357,532.289307 751.941650,538.588379 751.697510,544.851135 
	C751.487915,550.226501 750.650391,555.672729 749.311340,560.887573 
	C746.973267,569.993103 743.996277,578.933350 741.398743,587.974976 
	C741.050171,589.188354 741.350769,590.588257 740.494751,591.322876 
	C738.072144,594.001404 735.649475,596.679932 733.113403,599.679199 
	C733.000000,600.000000 733.003540,599.996338 733.003540,599.996338 
	C730.252869,604.179810 728.066895,608.931824 724.590759,612.385071 
	C721.195435,615.757996 716.483032,617.805115 712.174438,620.717163 
	C712.000000,621.000000 712.003662,620.996277 712.003662,620.996277 
	C708.768982,623.200928 703.874939,623.804749 704.361145,629.418640 
	C702.409851,629.418640 700.798157,629.418640 699.117004,629.418640 
	C696.158813,635.403809 702.919739,634.700378 705.519714,638.070007 
	C698.786682,638.660095 692.973083,639.522400 687.653992,636.292542 
	C685.044495,634.708069 683.220215,634.340881 680.593018,636.384338 
	C678.993835,637.628235 676.398682,637.609070 674.237854,638.099731 
	C673.769714,638.206055 673.209839,637.934509 672.752808,638.059265 
	C655.953430,642.643921 638.765808,640.589844 621.737854,640.917664 
	C604.602356,641.247498 587.450745,641.214844 570.316589,640.852051 
	C565.248169,640.744629 560.008057,642.998901 554.875122,639.701050 
	C553.406921,638.757690 550.228394,640.476379 547.578735,640.658447 
	C548.510498,639.059753 550.653931,637.826477 550.723267,636.485962 
	C551.067444,629.830444 553.321594,623.591858 553.262024,616.703247 
	C552.809814,564.438171 552.990295,512.167419 553.056702,459.898560 
	C553.062622,455.265320 553.660095,450.632843 554.019531,445.631439 
	C555.869751,443.351013 557.683289,441.439178 559.853271,439.151489 
	C558.810547,438.838409 557.406311,438.416779 555.746704,437.839172 
	C554.670715,437.120209 553.850098,436.557190 553.029541,435.994171 
M669.439087,445.923279 
	C661.506104,445.037079 653.581543,443.485199 645.638672,443.385254 
	C617.988464,443.037201 590.330872,443.305267 562.678711,443.052551 
	C557.650879,443.006592 556.582458,444.872070 556.591553,449.465240 
	C556.713013,510.604248 556.743469,571.743774 556.558228,632.882507 
	C556.542725,637.998657 558.318237,638.892151 562.868713,638.856750 
	C586.856689,638.669800 610.848511,638.932190 634.835510,638.690002 
	C644.301758,638.594482 653.843140,638.203491 663.205872,636.905396 
	C706.719666,630.872437 742.399597,601.297546 747.493347,553.505554 
	C750.192688,528.178406 745.777771,504.338654 730.415405,483.370605 
	C715.416504,462.898804 694.659912,451.506744 669.439087,445.923279 
M659.165344,440.709991 
	C659.041565,440.882050 658.917847,441.054108 658.794128,441.226227 
	C658.975586,441.117340 659.157043,441.008453 659.165344,440.709991 
z"/>
<path fill="#E99431" opacity="1.000000" stroke="none" 
	d="
M785.198608,602.641052 
	C791.124451,608.438965 796.538818,614.902588 803.066162,619.917603 
	C829.180542,639.981628 858.823914,647.202026 891.085815,640.918274 
	C932.570129,632.838257 961.092102,608.724121 972.645203,567.789368 
	C987.591980,514.830017 958.499695,462.312286 906.110962,444.629852 
	C859.458069,428.883392 807.661682,445.752747 781.318604,485.798370 
	C776.344116,493.360352 773.225159,502.142914 768.893311,510.379852 
	C768.736450,508.643036 768.936218,506.888641 769.135986,505.134216 
	C770.849792,492.958008 779.764954,484.910767 786.204346,475.452850 
	C787.776550,473.143585 789.527527,470.924500 791.419434,468.869324 
	C807.566956,451.327698 828.312256,442.825867 851.143799,438.067474 
	C866.119812,434.946289 880.720581,437.386993 895.401001,439.647675 
	C899.640686,440.300537 903.906128,441.015167 908.025452,442.177429 
	C919.579407,445.437408 929.378479,452.171570 938.553711,459.462585 
	C946.085571,465.447693 952.427246,472.921143 959.398560,479.628754 
	C960.830811,481.006897 962.715881,481.914398 964.648010,483.210358 
	C967.708618,491.975189 971.408813,501.341217 974.193970,510.971863 
	C976.110718,517.599487 977.255371,524.551941 977.836975,531.435974 
	C978.437744,538.546570 978.500916,545.805786 977.794739,552.899963 
	C976.668640,564.210999 975.387146,575.629700 968.739990,585.472351 
	C968.555542,585.745422 968.258423,586.089172 968.303711,586.349548 
	C969.883423,595.437134 961.692627,598.630737 957.284851,603.810913 
	C950.115051,612.237061 942.112610,619.981689 934.129578,627.668945 
	C932.271240,629.458435 928.872803,629.526489 926.533447,630.958923 
	C915.323975,637.822449 902.709900,640.839355 890.253479,644.108704 
	C885.700928,645.303528 880.664062,644.560730 875.865051,644.925171 
	C859.335693,646.180237 843.498718,642.673706 827.986084,637.626526 
	C822.381165,635.802917 817.231689,632.579773 811.407043,629.596985 
	C809.645569,628.109985 808.351440,627.021179 807.057312,625.932434 
	C804.598999,623.971802 802.140747,622.011230 799.153076,619.697998 
	C796.463745,617.539795 794.303833,615.734131 792.143921,613.928467 
	C792.143921,613.928467 792.125427,613.876221 792.010498,613.547791 
	C789.663269,609.693237 787.430969,606.167114 785.198608,602.641052 
z"/>
<path fill="#FE8303" opacity="1.000000" stroke="none" 
	d="
M553.982788,446.000000 
	C553.660095,450.632843 553.062622,455.265320 553.056702,459.898560 
	C552.990295,512.167419 552.809814,564.438171 553.262024,616.703247 
	C553.321594,623.591858 551.067444,629.830444 550.723267,636.485962 
	C550.653931,637.826477 548.510498,639.059753 547.174194,640.658142 
	C545.531738,641.105652 544.038513,641.237488 542.263062,641.173279 
	C541.983154,640.538391 541.985474,640.099487 542.333618,639.256531 
	C543.787170,637.569885 544.894836,636.287415 546.309814,634.972656 
	C547.152527,634.480042 547.687866,634.019653 548.223206,633.559326 
	C547.159363,633.044556 546.095581,632.529907 544.717651,631.865112 
	C540.400513,627.323486 544.872681,626.943604 547.000122,626.088806 
	C547.000122,623.271179 547.000122,620.948975 547.000122,618.626831 
	C547.000061,564.183533 546.988892,509.740265 547.042236,455.296997 
	C547.044312,453.197693 547.666687,451.098999 548.281067,448.801514 
	C550.369019,447.735352 552.175903,446.867676 553.982788,446.000000 
z"/>
<path fill="#FE8302" opacity="1.000000" stroke="none" 
	d="
M432.988708,484.611511 
	C419.516449,476.405975 407.411774,466.443024 400.073975,451.350220 
	C401.455963,451.205414 402.925018,451.409637 404.781311,452.043030 
	C405.772064,452.318085 406.375580,452.163910 406.979126,452.009735 
	C409.532318,453.086029 412.316376,453.828979 414.545563,455.372986 
	C415.739014,456.199585 416.361267,458.360809 416.552826,460.000153 
	C416.816254,462.254517 415.836975,466.392426 416.416565,466.581726 
	C419.547333,467.604675 422.988647,467.752930 426.337982,467.980713 
	C427.237030,468.041870 428.264313,466.907715 429.100220,467.058197 
	C430.623749,467.332520 432.048157,468.157166 433.513947,468.752167 
	C432.643372,470.115265 432.042084,471.849823 430.823669,472.733154 
	C429.689209,473.555664 427.897797,473.471985 425.305359,474.016022 
	C428.673889,477.732635 434.547546,478.500946 432.988708,484.611511 
M412.727997,458.841675 
	C412.891083,458.959229 413.054199,459.076782 413.217285,459.194336 
	C413.114319,459.022217 413.011322,458.850098 412.727997,458.841675 
z"/>
<path fill="#FE8302" opacity="1.000000" stroke="none" 
	d="
M401.365540,569.028442 
	C398.902771,563.377136 400.036041,558.385071 404.275604,553.707458 
	C404.880066,554.222595 405.720490,554.699524 406.230469,555.412659 
	C409.344788,559.767883 411.026031,565.092224 415.987518,568.241150 
	C417.336517,569.097351 417.272308,572.180298 417.937531,574.614014 
	C413.347351,577.593750 409.404327,577.914062 406.479279,572.256226 
	C405.710083,570.768372 403.353943,570.101013 401.365540,569.028442 
z"/>
<path fill="#F78912" opacity="1.000000" stroke="none" 
	d="
M785.180542,602.465210 
	C787.430969,606.167114 789.663269,609.693237 791.983826,613.540161 
	C788.552002,613.515259 778.490173,605.624695 778.147217,602.422791 
	C777.708801,598.329651 775.297180,597.173767 771.393066,597.003784 
	C771.000000,597.000000 771.005310,597.004150 771.005310,597.004150 
	C770.597656,591.830139 770.190002,586.656189 770.222534,581.444336 
	C774.048157,587.276184 777.328369,593.211182 780.897522,598.966980 
	C781.728394,600.306946 783.542114,601.037537 784.903625,602.048462 
	C784.903625,602.048462 785.162476,602.289307 785.180542,602.465210 
z"/>
<path fill="#E99431" opacity="1.000000" stroke="none" 
	d="
M784.855469,601.705566 
	C783.542114,601.037537 781.728394,600.306946 780.897522,598.966980 
	C777.328369,593.211182 774.048157,587.276184 770.396118,581.205322 
	C769.626160,579.460144 769.122864,577.916138 768.378662,575.718628 
	C767.478210,573.333130 766.818542,571.601196 766.158936,569.869263 
	C766.158936,569.869263 766.133606,569.402832 766.048584,568.906067 
	C765.723511,567.930664 765.483521,567.451965 765.243530,566.973328 
	C765.023132,566.399048 764.802673,565.824707 764.391602,564.651733 
	C764.093140,560.347290 763.985229,556.641602 763.877319,552.935852 
	C764.023987,551.486877 764.170654,550.037964 764.508667,548.279663 
	C766.801880,567.500305 772.824524,585.553772 784.855469,601.705566 
z"/>
<path fill="#FE8302" opacity="1.000000" stroke="none" 
	d="
M400.340271,623.816772 
	C399.997589,611.254395 399.783051,598.503174 400.125305,585.766785 
	C400.224670,582.070251 401.918304,578.416504 402.929260,574.377258 
	C405.276306,574.564270 405.856812,575.475647 404.668579,577.910522 
	C403.357208,580.597534 402.201752,583.660706 402.117645,586.592712 
	C401.817108,597.071289 402.063354,607.564453 401.940002,618.050232 
	C401.918060,619.915955 401.120178,621.772644 400.340271,623.816772 
z"/>
<path fill="#FE8302" opacity="1.000000" stroke="none" 
	d="
M747.009766,504.979858 
	C747.520630,504.005371 748.721436,502.621552 748.426819,502.124969 
	C746.883301,499.523132 744.960815,497.146088 743.071167,494.353333 
	C751.250549,494.034973 753.827576,497.520020 751.865967,505.529144 
	C751.303650,507.824921 751.646790,510.342499 751.279846,512.881104 
	C747.954956,512.566833 745.324951,511.748138 746.180420,507.173096 
	C746.578918,506.038971 746.794312,505.509399 747.009766,504.979858 
z"/>
<path fill="#FE8302" opacity="1.000000" stroke="none" 
	d="
M751.333496,525.931641 
	C750.837402,522.565247 750.705139,519.124512 750.779053,515.340088 
	C751.438965,514.999878 751.892761,515.003357 752.727783,515.353882 
	C754.738342,516.796204 756.367615,517.891418 757.996887,518.986633 
	C758.217529,521.211792 758.005127,524.073608 762.092529,521.154907 
	C762.825806,520.868958 763.020142,520.833496 763.390442,521.088135 
	C763.726868,522.264709 763.887207,523.151245 763.707520,524.115723 
	C762.253052,525.794006 761.138672,527.394287 760.024292,528.994629 
	C757.076294,528.406250 755.847839,523.253967 751.333496,525.931641 
z"/>
<path fill="#FE8303" opacity="1.000000" stroke="none" 
	d="
M535.975830,445.016083 
	C535.692322,444.530792 535.408813,444.045502 535.208618,443.028473 
	C537.238953,439.540558 535.287109,439.154755 532.986084,438.999115 
	C532.985718,437.936005 532.985413,436.872925 532.980957,435.411682 
	C535.865234,433.634552 538.425476,432.909698 541.568665,435.223022 
	C542.969788,436.254242 545.940735,435.152618 548.599609,435.412323 
	C548.997253,436.880249 548.994507,437.954834 548.622070,439.025940 
	C547.512451,439.018677 546.772705,439.014923 545.709961,439.087189 
	C544.586609,440.113373 543.786255,441.063538 542.696899,441.905579 
	C541.442749,441.053162 540.477417,440.308929 538.490784,438.777252 
	C538.747559,441.290344 538.885559,442.641174 538.707275,444.053101 
	C537.585876,444.414825 536.780884,444.715454 535.975830,445.016083 
z"/>
<path fill="#F78912" opacity="1.000000" stroke="none" 
	d="
M760.230347,529.340576 
	C761.138672,527.394287 762.253052,525.794006 763.714294,524.570312 
	C764.266113,528.950500 764.471130,532.954163 764.676147,536.957825 
	C764.702393,539.363159 764.728638,541.768555 764.649048,544.614136 
	C763.416992,544.245056 762.290649,543.435730 761.086914,541.938354 
	C761.007996,540.500000 761.006409,539.749634 761.004883,538.999268 
	C760.815369,535.895020 760.625916,532.790833 760.230347,529.340576 
z"/>
<path fill="#F78912" opacity="1.000000" stroke="none" 
	d="
M792.074341,614.283936 
	C794.303833,615.734131 796.463745,617.539795 798.821960,619.599121 
	C798.289612,620.709351 797.558899,621.565918 797.019348,622.198425 
	C794.769775,622.748901 792.816040,615.680664 791.020874,622.658264 
	C791.000000,623.000000 791.003967,622.995178 791.003967,622.995178 
	C789.332642,623.406006 787.661377,623.816895 784.711060,624.542175 
	C787.590149,620.633118 789.797424,617.636292 792.074341,614.283936 
z"/>
<path fill="#F78912" opacity="1.000000" stroke="none" 
	d="
M768.752563,505.132965 
	C768.936218,506.888641 768.736450,508.643036 768.709839,510.683350 
	C768.803345,511.544800 768.723694,512.120361 768.097900,512.987183 
	C766.428162,515.176086 765.304504,517.073792 764.180908,518.971436 
	C763.535278,517.085571 761.852539,514.726685 762.453430,513.409302 
	C763.834717,510.380737 766.327515,507.859100 768.752563,505.132965 
z"/>
<path fill="#E99431" opacity="1.000000" stroke="none" 
	d="
M764.040894,519.187683 
	C765.304504,517.073792 766.428162,515.176086 767.874146,513.180908 
	C767.117004,520.763184 766.037415,528.442932 764.817017,536.540283 
	C764.471130,532.954163 764.266113,528.950500 764.054382,524.492310 
	C763.887207,523.151245 763.726868,522.264709 763.380371,520.929504 
	C763.194336,520.480835 763.209534,520.159424 763.209534,520.159424 
	C763.439941,519.907593 763.670410,519.655762 764.040894,519.187683 
z"/>
<path fill="#F78912" opacity="1.000000" stroke="none" 
	d="
M756.988647,556.996399 
	C756.333313,556.032471 755.214355,555.114929 755.112549,554.095703 
	C754.845703,551.423706 755.022583,548.707397 755.022583,545.731873 
	C760.544250,546.033081 760.453979,548.249756 757.968506,552.002563 
	C757.388245,554.070435 757.188477,555.533386 756.988647,556.996399 
z"/>
<path fill="#F78912" opacity="1.000000" stroke="none" 
	d="
M470.003967,439.003937 
	C469.677246,437.679535 469.350525,436.355164 469.023834,435.030762 
	C470.265411,434.918884 471.515564,434.657043 472.746765,434.727295 
	C475.094513,434.861298 477.431427,435.184723 479.746002,436.107147 
	C476.739777,437.005219 473.733582,437.903320 470.363678,438.900696 
	C470.000000,439.000000 470.003967,439.003937 470.003967,439.003937 
z"/>
<path fill="#F78912" opacity="1.000000" stroke="none" 
	d="
M763.565918,552.951782 
	C763.985229,556.641602 764.093140,560.347290 764.201355,564.407471 
	C759.436523,566.391785 761.640015,562.459473 761.223816,560.062500 
	C761.618286,557.232849 761.811401,555.119568 762.004517,553.006348 
	C762.421265,552.993408 762.837891,552.980530 763.565918,552.951782 
z"/>
<path fill="#FE8302" opacity="1.000000" stroke="none" 
	d="
M761.782898,552.854797 
	C761.811401,555.119568 761.618286,557.232849 761.224121,559.677979 
	C759.878784,559.072388 758.734436,558.134949 757.289307,557.096985 
	C757.188477,555.533386 757.388245,554.070435 757.788086,552.298828 
	C759.179260,552.227966 760.370239,552.465637 761.782898,552.854797 
z"/>
<path fill="#FE8302" opacity="1.000000" stroke="none" 
	d="
M756.975586,561.012207 
	C760.119080,564.612976 759.378052,568.130615 754.469604,570.501160 
	C754.625427,569.002625 754.747559,567.827881 755.252930,566.167969 
	C756.082703,564.125916 756.529114,562.569092 756.975586,561.012207 
z"/>
<path fill="#F78912" opacity="1.000000" stroke="none" 
	d="
M758.192139,518.682373 
	C756.367615,517.891418 754.738342,516.796204 753.068054,515.356934 
	C754.541870,514.453247 756.056702,513.893555 758.387329,513.032532 
	C758.387329,515.148499 758.387329,516.763306 758.192139,518.682373 
z"/>
<path fill="#FE8302" opacity="1.000000" stroke="none" 
	d="
M548.991821,439.029419 
	C548.994507,437.954834 548.997253,436.880249 549.000000,435.402710 
	C550.115662,435.288605 551.231384,435.577484 552.688293,435.930267 
	C553.850098,436.557190 554.670715,437.120209 555.638489,438.108124 
	C554.183899,439.032288 552.582092,439.531555 550.706543,439.960602 
	C549.952393,439.603363 549.472046,439.316406 548.991821,439.029419 
z"/>
<path fill="#F78912" opacity="1.000000" stroke="none" 
	d="
M756.604126,561.027100 
	C756.529114,562.569092 756.082703,564.125916 755.318115,565.835571 
	C751.737366,563.424072 752.523804,561.868896 756.604126,561.027100 
z"/>
<path fill="#F78912" opacity="1.000000" stroke="none" 
	d="
M429.327881,587.587036 
	C428.169128,588.681519 426.881195,589.475647 425.593231,590.269775 
	C425.296661,589.442078 425.000092,588.614380 424.703522,587.786743 
	C426.201904,587.619995 427.700287,587.453308 429.327881,587.587036 
z"/>
<path fill="#F78912" opacity="1.000000" stroke="none" 
	d="
M711.998169,621.001831 
	C713.387512,621.006348 714.778687,621.009033 716.584961,621.005859 
	C717.000000,621.000000 716.994568,620.994751 716.994568,620.994751 
	C716.412964,622.213562 715.831360,623.432434 715.249756,624.651245 
	C714.192200,623.676941 713.134705,622.702698 712.040405,621.362305 
	C712.003662,620.996277 712.000000,621.000000 711.998169,621.001831 
z"/>
<path fill="#F78912" opacity="1.000000" stroke="none" 
	d="
M766.043091,570.216614 
	C766.818542,571.601196 767.478210,573.333130 768.165466,575.441833 
	C762.341797,576.264465 764.927490,573.072327 766.043091,570.216614 
z"/>
<path fill="#F78912" opacity="1.000000" stroke="none" 
	d="
M732.998169,600.001770 
	C736.141113,600.386292 737.154602,602.088379 735.285217,605.507263 
	C734.544678,603.910461 733.804138,602.313721 733.033569,600.356628 
	C733.003540,599.996338 733.000000,600.000000 732.998169,600.001770 
z"/>
<path fill="#F78912" opacity="1.000000" stroke="none" 
	d="
M672.825439,435.437378 
	C672.731384,434.562714 672.875305,433.876648 673.019287,433.190582 
	C674.235046,433.807037 675.450745,434.423492 676.666504,435.039978 
	C676.458374,435.536011 676.250305,436.032013 676.042175,436.528046 
	C675.049255,436.227356 674.056335,435.926666 672.825439,435.437378 
z"/>
<path fill="#F78912" opacity="1.000000" stroke="none" 
	d="
M747.205078,585.965759 
	C747.350098,584.043945 747.579529,582.424927 747.808899,580.805908 
	C748.354309,580.894714 748.899658,580.983521 749.445068,581.072388 
	C748.977600,582.971069 748.510193,584.869812 748.042786,586.768494 
	C747.893677,586.728943 747.722168,586.722412 747.601501,586.640808 
	C747.472534,586.553650 747.391479,586.395630 747.205078,585.965759 
z"/>
<path fill="#F78912" opacity="1.000000" stroke="none" 
	d="
M469.998413,438.998047 
	C468.958954,440.278809 467.921082,441.561493 466.606689,443.185974 
	C465.552948,439.680359 465.552948,439.680359 469.615387,439.010681 
	C470.003967,439.003937 470.000000,439.000000 469.998413,438.998047 
z"/>
<path fill="#F78912" opacity="1.000000" stroke="none" 
	d="
M717.002197,621.002686 
	C717.679749,619.750427 718.354980,618.495483 719.030273,617.240540 
	C719.605896,617.658386 720.181519,618.076172 720.757141,618.494019 
	C719.746277,619.317749 718.735474,620.141479 717.359619,620.979980 
	C716.994568,620.994751 717.000000,621.000000 717.002197,621.002686 
z"/>
<path fill="#F78912" opacity="1.000000" stroke="none" 
	d="
M397.372986,436.615509 
	C397.496368,437.646820 397.343689,438.556641 397.190979,439.466431 
	C396.627899,439.234528 396.064819,439.002594 395.501740,438.770660 
	C396.033478,438.011780 396.565216,437.252899 397.372986,436.615509 
z"/>
<path fill="#F78912" opacity="1.000000" stroke="none" 
	d="
M743.082703,483.129395 
	C742.999146,484.084229 742.714355,484.826447 742.429565,485.568665 
	C741.834229,484.975708 741.238892,484.382751 740.643494,483.789795 
	C741.389465,483.498779 742.135498,483.207764 743.082703,483.129395 
z"/>
<path fill="#F78912" opacity="1.000000" stroke="none" 
	d="
M438.289032,602.484192 
	C437.789093,603.263550 437.184998,603.793335 436.580872,604.323059 
	C436.314514,603.669861 436.048126,603.016602 435.781769,602.363403 
	C436.582794,602.320435 437.383850,602.277527 438.289032,602.484192 
z"/>
<path fill="#FE8302" opacity="1.000000" stroke="none" 
	d="
M400.302246,632.846802 
	C399.988983,631.283020 399.991302,629.569824 399.994995,627.428284 
	C402.695343,628.627319 402.559082,630.563843 400.302246,632.846802 
z"/>
<path fill="#F78912" opacity="1.000000" stroke="none" 
	d="
M770.997314,596.997253 
	C770.834106,598.310974 770.673706,599.627441 770.513245,600.943909 
	C770.052307,600.822998 769.591309,600.702087 769.130371,600.581177 
	C769.556152,599.479736 769.981934,598.378296 770.706543,597.140503 
	C771.005310,597.004150 771.000000,597.000000 770.997314,596.997253 
z"/>
<path fill="#F78912" opacity="1.000000" stroke="none" 
	d="
M391.919739,435.001770 
	C391.095795,434.963409 390.453857,434.733002 389.811890,434.502625 
	C390.183472,434.096863 390.555023,433.691071 390.926605,433.285309 
	C391.318329,433.793427 391.710052,434.301575 391.919739,435.001770 
z"/>
<path fill="#F78912" opacity="1.000000" stroke="none" 
	d="
M733.513306,465.351196 
	C733.658020,466.060242 733.551880,466.682953 733.445740,467.305634 
	C732.916870,467.080505 732.388062,466.855347 731.859192,466.630188 
	C732.326965,466.175079 732.794678,465.719971 733.513306,465.351196 
z"/>
<path fill="#F78912" opacity="1.000000" stroke="none" 
	d="
M807.120300,626.271057 
	C808.351440,627.021179 809.645569,628.109985 811.059448,629.501221 
	C809.847290,628.739014 808.515259,627.674316 807.120300,626.271057 
z"/>
<path fill="#F78912" opacity="1.000000" stroke="none" 
	d="
M773.740967,608.413208 
	C773.198914,608.039062 772.903198,607.602112 772.607483,607.165100 
	C773.109375,607.034912 773.611206,606.904724 774.113098,606.774536 
	C774.071167,607.299805 774.029236,607.825012 773.740967,608.413208 
z"/>
<path fill="#FE8302" opacity="1.000000" stroke="none" 
	d="
M760.729980,539.103882 
	C761.006409,539.749634 761.007996,540.500000 761.008423,541.625610 
	C760.823242,541.070068 760.639221,540.139282 760.729980,539.103882 
z"/>
<path fill="#F78912" opacity="1.000000" stroke="none" 
	d="
M790.997437,623.002319 
	C791.692200,623.181824 792.389465,623.358948 793.086792,623.536072 
	C792.984009,623.807800 792.881226,624.079529 792.778503,624.351257 
	C792.250610,624.071167 791.722717,623.791138 791.099426,623.253113 
	C791.003967,622.995178 791.000000,623.000000 790.997437,623.002319 
z"/>
<path fill="#F78912" opacity="1.000000" stroke="none" 
	d="
M467.002411,633.998047 
	C466.503052,633.497742 466.001312,632.999451 465.499542,632.501099 
	C465.695953,632.324707 465.892365,632.148376 466.088776,631.971985 
	C466.374054,632.463501 466.659363,632.955017 466.969940,633.725830 
	C466.995239,634.005127 467.000000,634.000000 467.002411,633.998047 
z"/>
<path fill="#F78912" opacity="1.000000" stroke="none" 
	d="
M433.818420,597.760376 
	C434.011444,597.850586 434.114380,598.022644 434.217285,598.194702 
	C434.054291,598.077209 433.891296,597.959656 433.818420,597.760376 
z"/>
<path fill="#F78912" opacity="1.000000" stroke="none" 
	d="
M765.073792,567.153625 
	C765.483521,567.451965 765.723511,567.930664 766.015625,568.674805 
	C765.679871,568.404785 765.291992,567.869385 765.073792,567.153625 
z"/>
<path fill="#F78912" opacity="1.000000" stroke="none" 
	d="
M406.650879,452.011597 
	C406.375580,452.163910 405.772064,452.318085 405.088989,452.246857 
	C405.447174,452.018768 405.884918,452.016083 406.650879,452.011597 
z"/>
<path fill="#F78912" opacity="1.000000" stroke="none" 
	d="
M762.988831,520.257507 
	C763.209534,520.159424 763.194336,520.480835 763.204346,520.639465 
	C763.020142,520.833496 762.825806,520.868958 762.338501,520.943787 
	C762.251282,520.733521 762.492188,520.524353 762.988831,520.257507 
z"/>
<path fill="#FC8605" opacity="1.000000" stroke="none" 
	d="
M881.935120,492.832397 
	C909.325256,499.490540 922.842468,528.502136 914.953064,556.466492 
	C910.023682,573.939087 898.746338,585.536865 880.863281,589.218018 
	C862.977173,592.899719 847.119019,588.356934 834.990051,574.007446 
	C817.785461,553.653076 819.846130,515.001282 845.106628,498.847046 
	C856.394470,491.628387 868.612427,490.183960 881.935120,492.832397 
z"/>
<path fill="#FEFDFA" opacity="1.000000" stroke="none" 
	d="
M473.739868,482.999939 
	C473.736816,471.169952 473.870239,459.837402 473.657684,448.511383 
	C473.582275,444.494598 474.673828,442.968842 478.965118,443.034302 
	C494.790192,443.275635 510.623474,443.308838 526.447998,443.058624 
	C531.343018,442.981262 532.714355,444.731415 532.700684,449.416626 
	C532.580933,490.570679 532.651550,531.725220 532.656982,572.879639 
	C532.659668,593.039185 532.537659,613.199768 532.721863,633.357544 
	C532.760559,637.586792 531.253723,638.864929 527.241638,638.818665 
	C514.413940,638.670471 501.581390,638.642578 488.754883,638.839661 
	C484.519928,638.904785 482.270142,636.644958 479.718903,633.771729 
	C459.596863,611.110291 439.308167,588.596863 419.077454,566.031921 
	C413.076691,559.338745 407.109039,552.615906 401.094421,545.935303 
	C400.222504,544.966858 399.171753,544.159424 397.280701,542.436462 
	C397.280701,574.912048 397.280701,606.373840 397.280701,638.156067 
	C395.304962,638.407776 394.041840,638.704712 392.777710,638.709167 
	C375.949921,638.768677 359.120361,638.668335 342.295166,638.895935 
	C337.856659,638.955994 337.621185,636.742371 337.624451,633.308594 
	C337.681458,573.659729 337.656006,514.010864 337.648651,454.361938 
	C337.648224,450.892853 337.648590,447.423737 337.648590,443.157257 
	C341.534332,443.157257 344.975342,443.157196 348.416351,443.157257 
	C359.246460,443.157471 370.079773,443.307648 380.905029,443.078278 
	C384.798309,442.995758 387.381226,444.347565 389.873535,447.257355 
	C416.187592,477.979431 442.613800,508.605499 469.019775,539.248840 
	C470.081848,540.481384 471.250061,541.622498 473.739929,542.567017 
	C473.739929,522.877991 473.739929,503.188965 473.739868,482.999939 
z"/>
<path fill="#FD8601" opacity="1.000000" stroke="none" 
	d="
M535.979614,445.346436 
	C536.780884,444.715454 537.585876,444.414825 538.979919,444.220367 
	C540.708435,444.879822 541.847900,445.433136 543.277222,446.185608 
	C544.712097,446.589844 545.857300,446.794922 547.185608,447.216888 
	C547.579163,447.955841 547.789612,448.477936 548.000000,449.000000 
	C547.666687,451.098999 547.044312,453.197693 547.042236,455.296997 
	C546.988892,509.740265 547.000061,564.183533 547.000122,618.626831 
	C547.000122,620.948975 547.000122,623.271179 547.000122,626.088806 
	C544.872681,626.943604 540.400513,627.323486 544.733643,632.187195 
	C545.376709,633.441162 545.689575,634.223022 546.002441,635.004883 
	C544.894836,636.287415 543.787170,637.569885 542.335510,638.927246 
	C541.805542,638.748901 541.596497,638.516479 541.104858,637.802490 
	C539.228821,636.200012 537.612427,635.100037 535.995972,634.000000 
	C536.275879,632.213867 536.555786,630.427734 537.271545,628.291809 
	C538.559204,626.663940 539.953918,625.461060 540.143677,624.091309 
	C540.480835,621.657654 540.011841,619.122864 540.011169,616.630371 
	C539.996460,563.352478 540.000854,510.074615 539.996277,456.796753 
	C539.996094,454.966095 540.437073,452.926392 539.777344,451.361481 
	C539.066528,449.675415 537.300659,448.434143 535.995117,446.998779 
	C535.991211,446.558136 535.987305,446.117462 535.979614,445.346436 
z"/>
<path fill="#FE8302" opacity="1.000000" stroke="none" 
	d="
M535.993896,447.467560 
	C537.300659,448.434143 539.066528,449.675415 539.777344,451.361481 
	C540.437073,452.926392 539.996094,454.966095 539.996277,456.796753 
	C540.000854,510.074615 539.996460,563.352478 540.011169,616.630371 
	C540.011841,619.122864 540.480835,621.657654 540.143677,624.091309 
	C539.953918,625.461060 538.559204,626.663940 537.344788,627.973755 
	C536.502075,627.026367 535.600708,626.046387 535.602539,625.068176 
	C535.681702,582.659302 535.856628,540.250610 535.982300,497.841797 
	C536.031555,481.206787 535.991821,464.571503 535.993896,447.467560 
z"/>
<path fill="#FE8302" opacity="1.000000" stroke="none" 
	d="
M536.073914,634.352417 
	C537.612427,635.100037 539.228821,636.200012 540.924194,637.652466 
	C539.386108,636.904846 537.768982,635.804810 536.073914,634.352417 
z"/>
<path fill="#FE8302" opacity="1.000000" stroke="none" 
	d="
M533.048523,439.321350 
	C535.287109,439.154755 537.238953,439.540558 535.143555,442.751831 
	C534.367065,441.885803 533.739014,440.764709 533.048523,439.321350 
z"/>
<path fill="#FEFEFB" opacity="1.000000" stroke="none" 
	d="
M669.857849,445.990967 
	C694.659912,451.506744 715.416504,462.898804 730.415405,483.370605 
	C745.777771,504.338654 750.192688,528.178406 747.493347,553.505554 
	C742.399597,601.297546 706.719666,630.872437 663.205872,636.905396 
	C653.843140,638.203491 644.301758,638.594482 634.835510,638.690002 
	C610.848511,638.932190 586.856689,638.669800 562.868713,638.856750 
	C558.318237,638.892151 556.542725,637.998657 556.558228,632.882507 
	C556.743469,571.743774 556.713013,510.604248 556.591553,449.465240 
	C556.582458,444.872070 557.650879,443.006592 562.678711,443.052551 
	C590.330872,443.305267 617.988464,443.037201 645.638672,443.385254 
	C653.581543,443.485199 661.506104,445.037079 669.857849,445.990967 
M680.948120,568.347717 
	C685.528992,560.973633 687.847900,552.900757 688.388916,544.277283 
	C689.826904,521.354919 678.500366,503.516846 657.311218,495.531097 
	C644.803772,490.817291 631.712219,492.082458 618.774231,492.273010 
	C617.769165,492.287842 615.952271,494.926575 615.943787,496.354156 
	C615.768677,526.151062 615.821106,555.949219 615.759094,585.747009 
	C615.752930,588.718506 616.851257,589.918762 619.876526,589.852600 
	C626.199158,589.714355 632.539551,590.072510 638.850220,589.766113 
	C655.749512,588.945679 670.390381,583.397278 680.948120,568.347717 
z"/>
<path fill="#FF8500" opacity="1.000000" stroke="none" 
	d="
M548.281067,448.801514 
	C547.789612,448.477936 547.579163,447.955841 547.185181,446.816101 
	C546.999451,445.128998 546.997253,444.059631 547.361938,442.976074 
	C548.812683,441.984924 549.896484,441.007874 550.980286,440.030853 
	C552.582092,439.531555 554.183899,439.032288 555.893921,438.264099 
	C557.406311,438.416779 558.810547,438.838409 559.853271,439.151489 
	C557.683289,441.439178 555.869751,443.351013 554.019531,445.631409 
	C552.175903,446.867676 550.369019,447.735352 548.281067,448.801514 
z"/>
<path fill="#FF8500" opacity="1.000000" stroke="none" 
	d="
M746.916504,504.730774 
	C746.794312,505.509399 746.578918,506.038971 746.177368,506.788513 
	C745.560242,506.134216 745.129272,505.259888 744.698303,504.385559 
	C745.406616,504.417603 746.114929,504.449646 746.916504,504.730774 
z"/>
<path fill="#FF8500" opacity="1.000000" stroke="none" 
	d="
M659.251953,440.804749 
	C659.157043,441.008453 658.975586,441.117340 658.794128,441.226196 
	C658.917847,441.054108 659.041565,440.882050 659.251953,440.804749 
z"/>
<path fill="#F78912" opacity="1.000000" stroke="none" 
	d="
M546.309814,634.972656 
	C545.689575,634.223022 545.376709,633.441162 545.047791,632.337280 
	C546.095581,632.529907 547.159363,633.044556 548.223206,633.559326 
	C547.687866,634.019653 547.152527,634.480042 546.309814,634.972656 
z"/>
<path fill="#F78912" opacity="1.000000" stroke="none" 
	d="
M412.818176,458.759827 
	C413.011322,458.850098 413.114319,459.022217 413.217285,459.194336 
	C413.054199,459.076782 412.891083,458.959229 412.818176,458.759827 
z"/>
<path fill="#F78912" opacity="1.000000" stroke="none" 
	d="
M542.987427,445.986450 
	C541.847900,445.433136 540.708435,444.879822 539.296265,444.159241 
	C538.885559,442.641174 538.747559,441.290344 538.490784,438.777252 
	C540.477417,440.308929 541.442749,441.053162 542.702148,441.899292 
	C542.996277,442.001160 542.986023,442.011200 542.986206,442.408752 
	C542.986694,443.866333 542.987061,444.926392 542.987427,445.986450 
z"/>
<path fill="#F78912" opacity="1.000000" stroke="none" 
	d="
M550.706543,439.960602 
	C549.896484,441.007874 548.812683,441.984924 547.118103,442.976715 
	C546.507385,442.991486 546.019531,442.996490 546.019897,442.597778 
	C546.024536,441.136444 546.028748,440.073822 546.032959,439.011169 
	C546.772705,439.014923 547.512451,439.018677 548.622009,439.025940 
	C549.472046,439.316406 549.952393,439.603363 550.706543,439.960602 
z"/>
<path fill="#FF8500" opacity="1.000000" stroke="none" 
	d="
M545.709961,439.087189 
	C546.028748,440.073822 546.024536,441.136444 545.725952,442.469238 
	C544.616455,442.496643 543.801208,442.253906 542.986023,442.011200 
	C542.986023,442.011200 542.996277,442.001160 542.991089,442.007446 
	C543.786255,441.063538 544.586609,440.113373 545.709961,439.087189 
z"/>
<path fill="#FE8303" opacity="1.000000" stroke="none" 
	d="
M542.986206,442.408752 
	C543.801208,442.253906 544.616455,442.496643 545.725586,442.867920 
	C546.019531,442.996490 546.507385,442.991486 546.751221,442.990845 
	C546.997253,444.059631 546.999451,445.128998 547.002014,446.599182 
	C545.857300,446.794922 544.712097,446.589844 543.277222,446.185608 
	C542.987061,444.926392 542.986694,443.866333 542.986206,442.408752 
z"/>
<path fill="#FB8606" opacity="1.000000" stroke="none" 
	d="
M680.736938,568.644592 
	C670.390381,583.397278 655.749512,588.945679 638.850220,589.766113 
	C632.539551,590.072510 626.199158,589.714355 619.876526,589.852600 
	C616.851257,589.918762 615.752930,588.718506 615.759094,585.747009 
	C615.821106,555.949219 615.768677,526.151062 615.943787,496.354156 
	C615.952271,494.926575 617.769165,492.287842 618.774231,492.273010 
	C631.712219,492.082458 644.803772,490.817291 657.311218,495.531097 
	C678.500366,503.516846 689.826904,521.354919 688.388916,544.277283 
	C687.847900,552.900757 685.528992,560.973633 680.736938,568.644592 
z"/>
</svg>